<?xml version='1.0' encoding='utf-8'?>
<svg xmlns="http://www.w3.org/2000/svg" version="2.0" width="1100" height="500">
  <rect x="0" y="0" width="1100" height="500" fill="white" strokeWidth="0" stroke="none" />
  <rect x="50" y="50" width="1000" height="400" fill="lightblue" strokeWidth="2" stroke="black" />
  <polyline points="50.0,195.45454545454544 163.40579710144928,177.27272727272725 170.28985507246375,177.27272727272725 176.08695652173913,177.27272727272725 181.70289855072463,177.27272727272725 192.75362318840578,213.63636363636363 200.36231884057972,231.8181818181818 213.2246376811594,304.5454545454545 238.40579710144928,413.6363636363636 258.1521739130435,450.0 297.463768115942,340.9090909090909 336.4130434782609,195.45454545454544 341.4855072463768,177.27272727272725 389.4927536231884,140.90909090909088 402.7173913043478,177.27272727272725 417.57246376811594,195.45454545454544 431.7028985507246,177.27272727272725 446.7391304347826,159.09090909090907 459.6014492753623,140.90909090909088 502.17391304347825,140.90909090909088 516.6666666666667,140.90909090909088 536.4130434782609,159.09090909090907 620.4710144927536,231.8181818181818 623.731884057971,231.8181818181818 628.2608695652174,213.63636363636363 636.7753623188406,159.09090909090907 647.463768115942,104.5454545454545 667.2101449275362,49.99999999999994 688.768115942029,49.99999999999994 746.7391304347826,195.45454545454544 758.695652173913,213.63636363636363 778.4420289855072,249.99999999999997 798.1884057971015,231.8181818181818 813.9492753623189,195.45454545454544 821.5579710144928,177.27272727272725 978.9855072463768,177.27272727272725 988.9492753623189,159.09090909090907 1050.0,195.45454545454544" stroke="red" strokeWith="3" fill="none" />
  <text x="550" y="30" fontFamily="Arial" fontSize="20" style="text-anchor:middle;font-weight:bold">Perfil Altimétrico del Circuito</text>
  <text x="550" y="490" fontFamily="Arial" fontSize="14" style="text-anchor:middle">Distancia (m)</text>
  <text x="15" y="250" fontFamily="Arial" fontSize="14" style="text-anchor:middle;writing-mode:tb">Altitud (m)</text>
  <text x="45" y="465" fontFamily="Arial" fontSize="12" style="text-anchor:end">0</text>
  <text x="1055" y="465" fontFamily="Arial" fontSize="12" style="text-anchor:start">5520</text>
  <text x="45" y="455" fontFamily="Arial" fontSize="12" style="text-anchor:end">22</text>
  <text x="45" y="55" fontFamily="Arial" fontSize="12" style="text-anchor:end">44</text>
</svg>